<svg xmlns="http://www.w3.org/2000/svg" viewBox="0 0 600 360"><defs><pattern id="g" width="30" height="30" patternUnits="userSpaceOnUse"><path d="M30 0H0V30" fill="none" stroke="#4cc3b3" stroke-opacity=".3"/></pattern><clipPath id="c"><path d="M350 0H600V360H250V300H280V240H310V180H340V120H370V60H350Z"/></clipPath></defs><path fill="#eef1ea" d="M0 0h600v360H0z"/><text x="35" y="110" font-family="Arial,sans-serif" font-weight="900" font-size="59" fill="#15201e">THE OTHER</text><text x="35" y="176" font-family="Arial,sans-serif" font-weight="900" font-size="59" fill="#007c70">SIDE.</text><path fill="#0b1716" clip-path="url(#c)" d="M0 0h600v360H0z"/><g clip-path="url(#c)"><text x="35" y="110" font-family="Arial,sans-serif" font-weight="900" font-size="59" fill="#eef1ea">THE OTHER</text><text x="35" y="176" font-family="Arial,sans-serif" font-weight="900" font-size="59" fill="#00d4b9">SIDE.</text></g><path fill="url(#g)" d="M0 0h600v360H0z"/><g fill="#008b79"><path d="m275 201 13-4v28l-13 3zm34-44 9 5v24l-9-5zm32-70 13-4v27l-13 4z"/><path d="M265 259h10v28h-10z"/></g><text x="35" y="311" font-family="monospace" font-size="12" fill="#568b80">INVERSE CANVAS / PAGE TRANSITION</text></svg>
